# xmcd
#
# Track frame offsets:
#	150
#	22297
#	44912
#	62742
#	80027
#	100452
#	122785
#	147622
#	166062
#
# Disc length: 2604 seconds
#
# Revision: 1
# Processed by: cddbd v1.5.2PL0 Copyright (c) Steve Scherf et al.
# Submitted via: audiograbber 1.83.01
#
DISCID=8b0a2a09
DTITLE=Collins, Albert and Robert Cray and Johnny Copeland - Showdown!
DYEAR=1985
DGENRE=Blues
TTITLE0=T-bone shuffle
TTITLE1=The moon is full
TTITLE2=Lion's den
TTITLE3=She's into something
TTITLE4=Bring your fine self home
TTITLE5=Black cat bone
TTITLE6=The dream
TTITLE7=Albert's alley
TTITLE8=Blackjack
EXTD=
EXTT0=
EXTT1=
EXTT2=
EXTT3=
EXTT4=
EXTT5=
EXTT6=
EXTT7=
EXTT8=
PLAYORDER=
